<svg width="360" height="240" viewBox="0 0 360 240" fill="none" xmlns="http://www.w3.org/2000/svg">
  <rect width="360" height="240" fill="none"/>
  <circle cx="216" cy="94" r="52" fill="#EEF4FF" fill-opacity=".95"/>
  <circle cx="216" cy="94" r="42" stroke="white" stroke-width="8" opacity=".8"/>
  <path d="M185 96c11-26 51-26 62 0" stroke="#C9A84C" stroke-width="10" stroke-linecap="round"/>
  <path d="M190 126c17 16 44 16 61 0" stroke="white" stroke-width="9" stroke-linecap="round"/>
  <rect x="132" y="74" width="42" height="54" rx="18" fill="#FFFFFF" fill-opacity=".92"/>
  <rect x="154" y="63" width="88" height="69" rx="28" fill="#FFFFFF"/>
  <circle cx="184" cy="98" r="8" fill="#1A2B5E"/>
  <circle cx="213" cy="98" r="8" fill="#1A2B5E"/>
  <path d="M165 56c-1-17 13-31 30-31h36c17 0 31 14 30 31" stroke="#FFFFFF" stroke-width="12" stroke-linecap="round"/>
  <path d="M136 126c-22 7-35 20-40 39" stroke="#FFFFFF" stroke-width="12" stroke-linecap="round"/>
  <path d="M250 130c20 8 33 21 39 40" stroke="#FFFFFF" stroke-width="12" stroke-linecap="round"/>
  <rect x="111" y="168" width="177" height="38" rx="19" fill="#FFFFFF" fill-opacity=".94"/>
  <path d="M139 188h80" stroke="#1A2B5E" stroke-width="8" stroke-linecap="round" opacity=".9"/>
  <path d="M236 188h18" stroke="#C9A84C" stroke-width="8" stroke-linecap="round"/>
  <circle cx="92" cy="69" r="13" fill="#FFFFFF" fill-opacity=".65"/>
  <circle cx="287" cy="67" r="9" fill="#FFFFFF" fill-opacity=".55"/>
  <circle cx="297" cy="140" r="6" fill="#FFFFFF" fill-opacity=".6"/>
</svg>
